<svg width="150" height="70" viewBox="0 0 150 70" fill="none" xmlns="http://www.w3.org/2000/svg">
<mask id="mask0_5_365" style="mask-type:luminance" maskUnits="userSpaceOnUse" x="0" y="9" width="26" height="38">
<path fill-rule="evenodd" clip-rule="evenodd" d="M0 9.19983H25.6367V46.7648H0V9.19983Z" fill="white"/>
</mask>
<g mask="url(#mask0_5_365)">
<path fill-rule="evenodd" clip-rule="evenodd" d="M25.6369 39.5588H20.0399C13.9447 39.5588 7.77432 35.5816 7.77432 27.9815C7.77432 20.383 13.9447 16.4059 20.0399 16.4059H25.6369V9.19983H18.8141C14.2475 9.19983 9.61339 10.9737 6.10236 14.0677C3.29737 16.5393 -0.0457764 20.9595 -0.0457764 27.9815C-0.0457764 35.0051 3.29737 39.4269 6.10236 41.8969C9.61339 44.9901 14.2475 46.7648 18.8141 46.7648H25.6369V39.5588Z" fill="white"/>
</g>
<path fill-rule="evenodd" clip-rule="evenodd" d="M63.0667 46.7649V24.9153C63.0667 13.979 57.804 8.43337 47.428 8.43337C44.0067 8.43337 40.6973 9.70286 38.3814 11.8662V0H30.8679V46.7649H38.3814V24.9153C38.3814 19.6265 42.0718 15.6394 46.9681 15.6394C52.6654 15.6394 55.5532 18.7603 55.5532 24.9153V46.7649H63.0667Z" fill="white"/>
<path fill-rule="evenodd" clip-rule="evenodd" d="M119.121 0H111.608V34.4993C111.608 42.0649 115.924 46.7649 122.878 46.7649H127.795V39.5589H123.797C120.388 39.5589 119.121 38.4159 119.121 35.3426V16.406H127.795V9.19997H119.121V0Z" fill="white"/>
<path fill-rule="evenodd" clip-rule="evenodd" d="M99.3891 40.3179L95.7746 36.7049C93.5422 38.9372 90.4597 40.3179 87.0529 40.3179C80.2417 40.3179 74.7168 34.7945 74.7168 27.9817C74.7168 21.1697 80.2417 15.6464 87.0529 15.6464C93.8657 15.6464 99.3875 21.1697 99.3875 27.9817V27.9848L99.3891 27.9825V40.3179ZM87.0526 8.43201C76.2543 8.43201 67.5012 17.1851 67.5012 27.9811C67.5012 38.7794 76.2543 47.5325 87.0526 47.5325C92.4518 47.5325 97.3389 45.3431 100.877 41.8044L106.602 47.5256V27.9811C106.602 17.1851 97.8494 8.43201 87.0526 8.43201Z" fill="white"/>
<path fill-rule="evenodd" clip-rule="evenodd" d="M149.165 8.43201C139.02 8.43201 132.466 15.2517 132.466 25.8055V46.7651H139.978V25.6522C139.978 19.2457 143.605 15.6388 150 15.6388V8.43201C149.982 8.43201 149.165 8.43201 149.165 8.43201Z" fill="white"/>
<path fill-rule="evenodd" clip-rule="evenodd" d="M148.043 45.7423L147.124 43.1665H146.095V46.7649H146.755V43.8618L147.76 46.7649H148.335L149.329 43.8618V46.7649H149.991V43.1665H148.968L148.043 45.7423Z" fill="white"/>
<path fill-rule="evenodd" clip-rule="evenodd" d="M142.416 43.7668H143.591V46.7649H144.307V43.7668H145.484V43.1665H142.416V43.7668Z" fill="white"/>
<path fill-rule="evenodd" clip-rule="evenodd" d="M12.413 66.3448L10.4336 54.093H7.63245V69.6581H9.32203V56.783L11.457 69.6581H13.28L15.415 56.783V69.6581H17.1498V54.093H14.3916L12.413 66.3448Z" fill="#EC9234"/>
<path fill-rule="evenodd" clip-rule="evenodd" d="M26.2453 66.9901C26.2453 67.7904 25.8674 68.1683 25.0671 68.1683H24.5328C23.7332 68.1683 23.3545 67.7904 23.3545 66.9901V56.7605C23.3545 55.9602 23.7332 55.5823 24.5328 55.5823H25.0671C25.8674 55.5823 26.2453 55.9602 26.2453 56.7605V66.9901ZM25.1339 53.9594H24.4669C22.532 53.9594 21.5753 54.9153 21.5753 56.8494V66.9003C21.5753 68.8352 22.532 69.7912 24.4669 69.7912H25.1339C27.068 69.7912 28.024 68.8352 28.024 66.9003V56.8494C28.024 54.9153 27.068 53.9594 25.1339 53.9594Z" fill="#EC9234"/>
<path fill-rule="evenodd" clip-rule="evenodd" d="M36.8653 66.8785C36.8653 67.6789 36.4874 68.0568 35.6863 68.0568H34.1968V62.4982H35.5529C36.4429 62.4982 36.8653 62.9206 36.8653 63.8098V66.8785ZM34.1968 55.6927H35.6426C36.4429 55.6927 36.8209 56.0714 36.8209 56.8718V59.607C36.8209 60.4963 36.3985 60.9194 35.5092 60.9194H34.1968V55.6927ZM37.2207 61.6969C38.11 61.3642 38.5776 60.6521 38.5776 59.2737V56.9831C38.5776 55.049 37.6216 54.093 35.686 54.093H32.4402V69.6581H35.7312C37.6653 69.6581 38.6213 68.7021 38.6213 66.768V64.1439C38.6213 62.7648 38.133 62.0534 37.2207 61.6969Z" fill="#EC9234"/>
<path fill-rule="evenodd" clip-rule="evenodd" d="M43.017 69.6588H44.7962V54.093H43.017V69.6588Z" fill="#EC9234"/>
<path fill-rule="evenodd" clip-rule="evenodd" d="M51.006 54.093H49.2267V69.6581H53.9413V68.013H51.006V54.093Z" fill="#EC9234"/>
<path fill-rule="evenodd" clip-rule="evenodd" d="M59.9444 62.5203H62.9464V60.8966H59.9444V55.7381H63.0568V54.093H58.1659V69.6581H63.102V68.013H59.9444V62.5203Z" fill="#EC9234"/>
</svg>
